<svg id="Layer_1" data-name="Layer 1" xmlns="http://www.w3.org/2000/svg" viewBox="0 0 61.59 70"><defs><style>.cls-1{fill:#ef3c34;}.cls-2,.cls-3{fill:#fff;}.cls-3{fill-rule:evenodd;}</style></defs><title>logo</title><rect class="cls-1" width="61.59" height="70" rx="1" ry="1"/><path class="cls-2" d="M24.32,27.86a1,1,0,0,1-.7.16H22.37a1.1,1.1,0,0,1-.71-0.16,1,1,0,0,1-.18-0.7V24.85h-2.7v2.73q0,2.61,2.76,2.61h2.88q2.79,0,2.79-2.61V22.23q0-2.61-2.73-2.61H22.31a1.1,1.1,0,0,1-.71-0.16,1,1,0,0,1-.18-0.7V14.63a1,1,0,0,1,.18-0.7,1.11,1.11,0,0,1,.71-0.16h1.25a1.11,1.11,0,0,1,.71.16,1,1,0,0,1,.18.7v2.32h2.7V14.21q0-2.61-2.76-2.61H21.48q-2.76,0-2.76,2.61v4.9q0,2.64,2.7,2.64h2.2a1,1,0,0,1,.7.16,1,1,0,0,1,.16.7v4.55A1,1,0,0,1,24.32,27.86Z"/><path class="cls-2" d="M38.33,13.91L40,23.72H36.78Zm5.5,16.28L40.29,11.6H36.39l-3.3,18.6h2.67l0.68-4.31h3.92l0.74,4.31h2.7Z"/><path class="cls-2" d="M27.39,36.49q0-2.61-2.76-2.61H21.45q-2.76,0-2.76,2.61V49.86q0,2.64,2.76,2.64h3.18q2.76,0,2.76-2.64v-7H23.2V45h1.49v4.55a1,1,0,0,1-.18.7,1.1,1.1,0,0,1-.71.16H22.28a1.1,1.1,0,0,1-.71-0.16,1,1,0,0,1-.18-0.7V36.85a1,1,0,0,1,.18-0.7A1.11,1.11,0,0,1,22.28,36H23.8a1.1,1.1,0,0,1,.71.16,1,1,0,0,1,.18.7v2.47h2.7V36.49Z"/><path class="cls-2" d="M37.29,43.95h4.28V41.78H37.29V36h5.17V33.88H34.58v18.6h8.08V50.31H37.29V43.95Z"/><path class="cls-3" d="M18.85,55.46H42.62v2.38H18.85V55.46Z"/></svg>